<?xml version="1.0" encoding="UTF-8"?>
<svg version="1.1" xmlns="http://www.w3.org/2000/svg" width="1024" height="1024">
<path d="M0 0 C0.99 0.33 1.98 0.66 3 1 C2.93910852 15.16185552 2.86117335 29.32353267 2.76428509 43.48518944 C2.71976806 50.06270471 2.6804718 56.64016069 2.65356445 63.21777344 C2.62734404 69.57864276 2.58681216 75.9392816 2.53681374 82.30000687 C2.52027076 84.71334568 2.50867897 87.12672424 2.50238609 89.54011154 C2.45389698 106.44402949 1.99118447 123.20874418 -3.75 139.3125 C-4.00676514 140.05193848 -4.26353027 140.79137695 -4.52807617 141.55322266 C-16.33374203 174.35344556 -43.06247322 192.70174346 -70.97143555 210.74151611 C-75.36185799 213.58046184 -79.72424032 216.4571665 -84.0625 219.375 C-93.83458002 225.92563983 -103.73001966 232.2888345 -113.60253906 238.68652344 C-123.22640778 244.92482026 -132.83275053 251.18232675 -142.34765625 257.5859375 C-145.07838406 259.40808047 -147.84366044 261.16792885 -150.62109375 262.91796875 C-158.88986068 268.16470916 -167.02222924 273.61948266 -175.16992188 279.05151367 C-177.99181905 280.93204815 -180.8161621 282.80886891 -183.640625 284.68554688 C-210.60000439 301.66229383 -210.60000439 301.66229383 -226.3046875 328.53125 C-228.9843135 341.89927184 -227.55702044 355.11287524 -220.1875 366.75 C-219.15041055 368.18537318 -218.0879123 369.6027536 -217 371 C-216.47535156 371.67675781 -215.95070313 372.35351562 -215.41015625 373.05078125 C-212.24289922 376.88875153 -208.92200249 379.89409034 -204.9375 382.875 C-198.98215699 387.46860299 -194.43141675 393.47744815 -193 401 C-192.26651241 409.50845608 -194.60611043 416.25215769 -199.9921875 422.87890625 C-204.23057854 427.57843512 -209.17958821 430.68487057 -214.5625 433.9375 C-216.53921238 435.1625186 -218.51577521 436.38777855 -220.4921875 437.61328125 C-221.44319336 438.19674316 -222.39419922 438.78020508 -223.37402344 439.38134766 C-226.67641753 441.41694387 -229.93330451 443.51323484 -233.1875 445.625 C-245.91073794 453.81605496 -258.73630584 461.84649576 -271.5625 469.875 C-272.54911621 470.4932666 -273.53573242 471.1115332 -274.55224609 471.74853516 C-277.36379944 473.50617176 -280.18046209 475.25520537 -283 477 C-283.88872803 477.55349121 -284.77745605 478.10698242 -285.69311523 478.67724609 C-299.92786721 487.41333669 -313.55299629 489.95059232 -330.04296875 487.55859375 C-341.1037631 484.76262189 -349.9944924 477.52691888 -356 468 C-363.94604208 453.20252368 -363.31324665 437.22623092 -363.30078125 420.91796875 C-363.30467977 418.77443867 -363.30901677 416.63090935 -363.31376648 414.48738098 C-363.32119658 410.00498956 -363.32096289 405.52267692 -363.31567383 401.0402832 C-363.3099141 395.36725607 -363.32674116 389.69455916 -363.3500185 384.02158642 C-363.36494351 379.59332981 -363.36560192 375.16514904 -363.36250877 370.73687172 C-363.36301364 368.64943099 -363.36808944 366.56198503 -363.37832069 364.47456932 C-363.53174164 328.77114802 -356.77181515 295.44076283 -339.95263672 263.79492188 C-339.02821195 262.05315588 -338.12507409 260.30014394 -337.22265625 258.546875 C-330.73380018 246.12829332 -322.74481991 234.90905706 -314 224 C-313.57348145 223.46761719 -313.14696289 222.93523437 -312.70751953 222.38671875 C-303.16847228 210.58228241 -292.68964577 199.60901729 -280.7578125 190.19921875 C-278.24996434 188.19933417 -275.82745799 186.12421823 -273.41218567 184.01425171 C-268.46241649 179.71561015 -263.39000069 175.74738536 -257.96484375 172.06640625 C-257.2856488 171.60260056 -256.60645386 171.13879486 -255.90667725 170.66093445 C-246.26121891 164.10163856 -236.49915636 157.71602004 -226.75 151.3125 C-222.91106779 148.78835401 -219.07268037 146.2633803 -215.234375 143.73828125 C-213.86236938 142.83588966 -213.86236938 142.83588966 -212.46264648 141.91526794 C-205.95802722 137.63536956 -199.47006193 133.33200569 -193 129 C-172.65593943 115.39955167 -152.26353878 101.8750782 -131.81835938 88.42700195 C-120.27167288 80.82987126 -108.75545823 73.18849007 -97.26217651 65.51080322 C-93.8845548 63.25504567 -90.50480279 61.00248769 -87.125 58.75 C-85.92967572 57.95314267 -84.73436164 57.15627003 -83.5390625 56.359375 C-72.5 49 -72.5 49 -70.83081055 47.88729858 C-67.78046897 45.85385211 -64.73033152 43.82010201 -61.68066406 41.78564453 C-55.41550342 37.60646347 -49.14721007 33.43207641 -42.87329102 29.26605225 C-39.51797472 27.03761607 -36.16395635 24.80723056 -32.81005859 22.57666016 C-31.09673496 21.43782116 -29.3828632 20.29980636 -27.66845703 19.16259766 C-25.13684915 17.4830333 -22.60704529 15.80079541 -20.078125 14.1171875 C-19.27685181 13.58478455 -18.47557861 13.05238159 -17.65002441 12.50384521 C-12.28675737 8.91970524 -7.09757638 5.18470942 -2.02246094 1.19970703 C-1.02134277 0.60585205 -1.02134277 0.60585205 0 0 Z " fill="#0040FC" transform="translate(693,147)"/>
<path d="M0 0 C13.28577279 -0.5367989 26.48047292 -0.77757871 37.23046875 8.3203125 C37.81441406 8.87460937 38.39835937 9.42890625 39 10 C39.61488281 10.57492187 40.22976563 11.14984375 40.86328125 11.7421875 C54.5977776 25.91783469 53.31400764 47.15040508 53.265625 65.53125 C53.26697819 67.37902884 53.2689241 69.22680732 53.27142334 71.07458496 C53.27434982 74.9270368 53.27016159 78.7793951 53.26074219 82.63183594 C53.24941215 87.49505334 53.25607428 92.35805042 53.26761436 97.22126007 C53.39596611 160.70799149 42.02534203 218.46310005 -2.7109375 266.5234375 C-4.64583216 268.61682183 -6.48576906 270.75082207 -8.3125 272.9375 C-16.85671927 282.71943327 -27.06840266 290.9202773 -37.37255859 298.7578125 C-38.82688645 299.86786652 -40.26791047 300.99530057 -41.70703125 302.125 C-50.50166032 308.92377621 -59.8266285 314.9403808 -69.08984375 321.07421875 C-73.86117715 324.23565348 -78.60326206 327.434408 -83.3125 330.6875 C-83.93060547 331.11442139 -84.54871094 331.54134277 -85.18554688 331.98120117 C-86.44695978 332.85308898 -87.70818814 333.72524384 -88.96923828 334.59765625 C-92.8891193 337.30453249 -96.81965017 339.99585772 -100.75 342.6875 C-101.49419189 343.19821045 -102.23838379 343.7089209 -103.00512695 344.23510742 C-109.29981699 348.54577403 -115.64592816 352.77749702 -122 357 C-138.98730934 368.25992151 -138.98730934 368.25992151 -155.79443359 379.78540039 C-159.15082209 382.10419704 -162.53810699 384.37007446 -165.9375 386.625 C-172.98887899 391.3144275 -180.003665 396.056013 -187.00842285 400.81469727 C-197.22600548 407.75486888 -207.46246109 414.66381881 -217.75 421.5 C-229.34844885 429.20948346 -240.84078183 437.06678045 -252.30859375 444.96875 C-253.68482461 445.91677007 -255.06112511 446.86468905 -256.4375 447.8125 C-257.09903076 448.26810303 -257.76056152 448.72370605 -258.44213867 449.19311523 C-262.21206502 451.78496924 -266.00012806 454.34573939 -269.8125 456.875 C-275.23947947 460.47552017 -280.62322529 464.13746714 -286 467.8125 C-286.82604736 468.37630371 -287.65209473 468.94010742 -288.50317383 469.52099609 C-289.28587646 470.0567627 -290.0685791 470.5925293 -290.875 471.14453125 C-291.57367188 471.62253174 -292.27234375 472.10053223 -292.9921875 472.59301758 C-295.02856511 474.02001711 -297.01899828 475.4973147 -299 477 C-299.66 476.67 -300.32 476.34 -301 476 C-301.04663531 464.81984518 -301.08202603 453.63971405 -301.10362434 442.45948124 C-301.11399791 437.26632783 -301.12803756 432.07324167 -301.15087891 426.88012695 C-301.1728392 421.85505463 -301.18461675 416.8300464 -301.18975449 411.80492973 C-301.19340912 409.90149364 -301.2005436 407.99806048 -301.21146011 406.09465218 C-301.29234563 391.38722066 -301.08947318 376.36135706 -296.9375 362.125 C-296.62268677 361.03010254 -296.62268677 361.03010254 -296.30151367 359.91308594 C-287.17142149 329.96561928 -266.82540506 307.0709541 -240.75 290.5 C-239.44575396 289.66026259 -238.14221132 288.81943174 -236.83935547 287.97753906 C-234.32155081 286.35147418 -231.80116202 284.72956574 -229.27832031 283.11132812 C-225.53202353 280.69861033 -221.81982836 278.24048768 -218.125 275.75 C-209.14854687 269.7310381 -200.07517764 263.8593479 -191.01708984 257.96435547 C-188.04806142 256.03129165 -185.08038608 254.09617112 -182.11328125 252.16015625 C-181.15462158 251.53463867 -180.19596191 250.90912109 -179.20825195 250.26464844 C-177.26792197 248.99846902 -175.32765567 247.732192 -173.38745117 246.46582031 C-169.05527928 243.63948749 -164.72112791 240.81655303 -160.375 238.01171875 C-156.32362598 235.39624165 -152.2839051 232.76340229 -148.24902344 230.12255859 C-145.76786179 228.50163739 -143.28391557 226.88534324 -140.79785156 225.27197266 C-136.81089786 222.68267961 -132.83446268 220.07773792 -128.86264038 217.46530151 C-127.26869582 216.42006204 -125.67178506 215.37932939 -124.07168579 214.34353638 C-107.44313772 203.56976281 -92.50732063 191.52928252 -87.4609375 171.34375 C-87.30882812 170.5703125 -87.15671875 169.796875 -87 169 C-86.84789062 168.2265625 -86.69578125 167.453125 -86.5390625 166.65625 C-84.56602532 153.15190661 -88.15062342 140.12993947 -96 129.1875 C-97.31710349 127.44593934 -98.65015436 125.71630763 -100 124 C-100.99773437 122.70642578 -100.99773437 122.70642578 -102.015625 121.38671875 C-103.81649084 119.22071672 -105.60611253 117.44110302 -107.75 115.625 C-108.43964844 115.02300781 -109.12929688 114.42101562 -109.83984375 113.80078125 C-111.25105209 112.62434898 -112.70177266 111.49337268 -114.19140625 110.41796875 C-119.58172664 106.33800249 -121.40137024 102.62202845 -122.65625 95.984375 C-123.54379869 88.27883861 -122.08372443 83.3313337 -118.15625 76.65234375 C-112.3221812 69.47601636 -105.00809536 64.43352113 -97.125 59.75 C-95.26511938 58.62192695 -93.40575497 57.49300243 -91.546875 56.36328125 C-90.61810547 55.80205566 -89.68933594 55.24083008 -88.73242188 54.66259766 C-84.58177755 52.13705371 -80.47716667 49.54079808 -76.375 46.9375 C-74.81770833 45.95182292 -73.26041667 44.96614583 -71.703125 43.98046875 C-70.13538908 42.9870227 -68.56768115 41.99353247 -67 41 C-57.58235713 35.03462154 -48.16346245 29.07883311 -38.6484375 23.26953125 C-35.62980687 21.40766233 -32.64618251 19.493965 -29.6640625 17.57421875 C-28.22027222 16.64681885 -28.22027222 16.64681885 -26.74731445 15.70068359 C-24.84201835 14.47486544 -22.939347 13.24495439 -21.03979492 12.01025391 C-5.46844484 2 -5.46844484 2 0 2 C0 1.34 0 0.68 0 0 Z " fill="#0038F9" transform="translate(641,392)"/>
<path d="M0 0 C13.28577279 -0.5367989 26.48047292 -0.77757871 37.23046875 8.3203125 C37.81441406 8.87460937 38.39835938 9.42890625 39 10 C39.61488281 10.57492187 40.22976563 11.14984375 40.86328125 11.7421875 C54.5977776 25.91783469 53.31400764 47.15040508 53.265625 65.53125 C53.26697819 67.37902884 53.2689241 69.22680732 53.27142334 71.07458496 C53.27434982 74.9270368 53.27016159 78.7793951 53.26074219 82.63183594 C53.24941215 87.49505334 53.25607428 92.35805042 53.26761436 97.22126007 C53.39596611 160.70799149 42.02534203 218.46310005 -2.7109375 266.5234375 C-4.64583216 268.61682183 -6.48576906 270.75082207 -8.3125 272.9375 C-11.55111061 276.64760284 -15.05133375 280.05436278 -18.625 283.4375 C-19.17583252 283.97044678 -19.72666504 284.50339355 -20.29418945 285.05249023 C-23.41372575 287.95293023 -25.68732952 289.68737147 -30 290 C-29.49328679 285.07239761 -28.03790841 282.043782 -25.3125 277.9375 C-12.17482086 257.36634967 -7.43050335 234.85406872 -11.84765625 210.66796875 C-14.20719611 200.03358733 -18.61638703 190.41799619 -24 181 C-24.83337891 179.52466797 -24.83337891 179.52466797 -25.68359375 178.01953125 C-42.25590003 150.47850427 -69.62873793 133.27783844 -97.05517578 118.08349609 C-100.23863499 116.30993446 -103.40077743 114.49944639 -106.5625 112.6875 C-107.63628906 112.07261719 -108.71007812 111.45773437 -109.81640625 110.82421875 C-111.39228516 109.92123047 -111.39228516 109.92123047 -113 109 C-113.62245605 108.69682861 -114.24491211 108.39365723 -114.88623047 108.08129883 C-118.00282008 106.5053007 -119.76899573 105.45347714 -121.375 102.30078125 C-123.50771027 92.10376025 -123.49519247 85.73164998 -118.15625 76.65234375 C-112.3221812 69.47601636 -105.00809536 64.43352113 -97.125 59.75 C-95.26511938 58.62192695 -93.40575497 57.49300243 -91.546875 56.36328125 C-90.61810547 55.80205566 -89.68933594 55.24083008 -88.73242188 54.66259766 C-84.58177755 52.13705371 -80.47716667 49.54079808 -76.375 46.9375 C-74.81770833 45.95182292 -73.26041667 44.96614583 -71.703125 43.98046875 C-70.13538908 42.9870227 -68.56768115 41.99353247 -67 41 C-57.58235713 35.03462154 -48.16346245 29.07883311 -38.6484375 23.26953125 C-35.62980687 21.40766233 -32.64618251 19.493965 -29.6640625 17.57421875 C-28.22027222 16.64681885 -28.22027222 16.64681885 -26.74731445 15.70068359 C-24.84201835 14.47486544 -22.939347 13.24495439 -21.03979492 12.01025391 C-5.46844484 2 -5.46844484 2 0 2 C0 1.34 0 0.68 0 0 Z " fill="#0061FE" transform="translate(641,392)"/>
<path d="M0 0 C0.99 0.495 0.99 0.495 2 1 C1.5875 1.35449219 1.175 1.70898438 0.75 2.07421875 C-15.39724581 16.95996098 -24.18001398 41.89590999 -25.2578125 63.4609375 C-26.33150064 96.81529292 -13.71761164 126.37467372 8.77734375 150.64453125 C9.51082031 151.42183594 10.24429688 152.19914063 11 153 C11.66128906 153.72574219 12.32257813 154.45148438 13.00390625 155.19921875 C29.46617079 172.5986141 52.86454918 186.35555305 74.8203125 195.65234375 C80.30851258 197.97842364 82.928399 200.30658059 85.3125 205.75 C88.08253464 213.48348445 87.45131005 218.70144199 84.55859375 226.3125 C79.85499221 234.42297083 73.34140955 239.16155534 65.4375 243.9375 C63.46078762 245.1625186 61.48422479 246.38777855 59.5078125 247.61328125 C58.55680664 248.19674316 57.60580078 248.78020508 56.62597656 249.38134766 C53.32358247 251.41694387 50.06669549 253.51323484 46.8125 255.625 C34.08926206 263.81605496 21.26369416 271.84649576 8.4375 279.875 C7.45088379 280.4932666 6.46426758 281.1115332 5.44775391 281.74853516 C2.63620056 283.50617176 -0.18046209 285.25520537 -3 287 C-3.88872803 287.55349121 -4.77745605 288.10698242 -5.69311523 288.67724609 C-19.92786721 297.41333669 -33.55299629 299.95059232 -50.04296875 297.55859375 C-61.1037631 294.76262189 -69.9944924 287.52691888 -76 278 C-83.94604208 263.20252368 -83.31324665 247.22623092 -83.30078125 230.91796875 C-83.30467977 228.77443867 -83.30901677 226.63090935 -83.31376648 224.48738098 C-83.32119658 220.00498956 -83.32096289 215.52267692 -83.31567383 211.0402832 C-83.3099141 205.36725607 -83.32674116 199.69455916 -83.3500185 194.02158642 C-83.36494351 189.59332981 -83.36560192 185.16514904 -83.36250877 180.73687172 C-83.36301364 178.64943099 -83.36808944 176.56198503 -83.37832069 174.47456932 C-83.53174164 138.77114802 -76.77181515 105.44076283 -59.95263672 73.79492188 C-59.02821195 72.05315588 -58.12507409 70.30014394 -57.22265625 68.546875 C-50.73380018 56.12829332 -42.74481991 44.90905706 -34 34 C-33.57348145 33.46761719 -33.14696289 32.93523437 -32.70751953 32.38671875 C-23.09484249 20.49116658 -12.55832661 8.83734095 0 0 Z " fill="#0066FE" transform="translate(413,337)"/>
<path d="M0 0 C0.5534764 2.07553648 1 3.84365964 1 6 C0.08605469 6.70898438 -0.82789063 7.41796875 -1.76953125 8.1484375 C-5.4459097 11.10033726 -6.95996988 14.31232615 -8.6875 18.625 C-8.98221191 19.32923096 -9.27692383 20.03346191 -9.58056641 20.7590332 C-12.54255964 28.00230301 -14.49750739 35.33251788 -16 43 C-16.25753052 44.13961182 -16.25753052 44.13961182 -16.52026367 45.30224609 C-17.40256357 50.2637799 -17.18459299 55.28627864 -17.1875 60.3125 C-17.19974609 61.41529297 -17.21199219 62.51808594 -17.22460938 63.65429688 C-17.23567973 69.83524704 -16.73716601 75.07514101 -15 81 C-14.77624144 82.58122716 -14.56635048 84.16452461 -14.375 85.75 C-11.59577532 101.06755894 -4.00308902 114.74674806 4.89013672 127.30273438 C6.09020787 129.13795097 7.05436536 131.02340218 8 133 C8.66 133 9.32 133 10 133 C11.4453125 134.72265625 11.4453125 134.72265625 13.125 137.0625 C16.2035972 141.1716171 19.50067997 144.38289873 23.49609375 147.58984375 C23.99238281 148.05519531 24.48867188 148.52054688 25 149 C25 149.66 25 150.32 25 151 C25.556875 151.2475 26.11375 151.495 26.6875 151.75 C29 153 29 153 31.5625 155.0625 C33.92026019 157.16384349 33.92026019 157.16384349 37 158 C38.66666667 159.66666667 40.33333333 161.33333333 42 163 C44.20989976 164.64865538 46.37945385 166.19523425 48.6875 167.6875 C49.29674316 168.08251709 49.90598633 168.47753418 50.53369141 168.88452148 C55.48138307 171.9542714 60.14465048 173.58176075 66 174 C66 174.99 66 175.98 66 177 C67.65 177.66 69.3 178.32 71 179 C70.71125 178.4225 70.4225 177.845 70.125 177.25 C69.08333333 175.16666667 68.04166667 173.08333333 67 171 C70.89181438 174.16775589 74.44893166 177.44893166 78 181 C80.64036781 183.36399286 83.31440838 185.68759232 86 188 C85.67 188.66 85.34 189.32 85 190 C83.98873047 189.36964844 83.98873047 189.36964844 82.95703125 188.7265625 C79.61093068 186.77282875 76.16669438 185.07335032 72.6875 183.375 C59.02847912 176.59752693 46.14121032 169.25546247 34 160 C33.06800781 159.29359375 32.13601563 158.5871875 31.17578125 157.859375 C2.99101974 135.64073089 -15.6873113 105.97145006 -20 70 C-21.99587971 45.60240251 -15.99584995 19.1042138 0 0 Z " fill="#000ACE" transform="translate(407,346)"/>
<path d="M0 0 C20.69087431 7.90964663 40.87149122 20.97740632 58 35 C58.58023926 35.47195801 59.16047852 35.94391602 59.75830078 36.43017578 C82.37335714 54.94117654 99.90869594 78.68972074 105 108 C106.73981095 134.54351581 101.36778365 157.71500404 85 179 C83.69319865 180.35934756 82.36767627 181.70191788 81 183 C81.61536723 179.5414804 82.9378833 177.51829329 85.0625 174.75 C99.48598221 154.59867403 104.89479714 131.4369125 102 107 C101.30913755 102.87006491 100.28714099 98.98256564 99 95 C98.59910156 93.74574219 98.19820312 92.49148438 97.78515625 91.19921875 C92.37023217 75.18297336 82.8196176 61.19679452 70.50390625 49.62890625 C69 48 69 48 69 46 C68.41710205 45.73678955 67.8342041 45.4735791 67.23364258 45.20239258 C64.8978047 43.94498723 63.21332825 42.55159964 61.26171875 40.76171875 C57.27234543 37.19954811 53.1411111 33.95096445 48.8125 30.8125 C48.05727051 30.26440674 47.30204102 29.71631348 46.52392578 29.15161133 C37.44925588 22.7075077 27.76176721 17.32209342 18 12 C17.67 12.99 17.34 13.98 17 15 C17.66 15.66 18.32 16.32 19 17 C18.01 17 17.02 17 16 17 C14.8180918 15.61547897 13.6449527 14.22208204 12.52734375 12.78515625 C10.24069883 10.11253035 7.56980127 7.95084697 4.8671875 5.7109375 C2.95109281 3.95518546 1.49173355 2.1217825 0 0 Z " fill="#0007C2" transform="translate(526,500)"/>
<path d="M0 0 C0.5534764 2.07553648 1 3.84365964 1 6 C0.08605469 6.70898438 -0.82789063 7.41796875 -1.76953125 8.1484375 C-5.4459097 11.10033726 -6.95996988 14.31232615 -8.6875 18.625 C-8.98221191 19.32923096 -9.27692383 20.03346191 -9.58056641 20.7590332 C-12.54255964 28.00230301 -14.49750739 35.33251788 -16 43 C-16.25293823 44.15798096 -16.25293823 44.15798096 -16.51098633 45.33935547 C-16.99098653 47.95095919 -17.20256102 50.43106381 -17.31640625 53.08203125 C-17.35830078 54.01337891 -17.40019531 54.94472656 -17.44335938 55.90429688 C-17.48267578 56.86400391 -17.52199219 57.82371094 -17.5625 58.8125 C-17.60568359 59.79154297 -17.64886719 60.77058594 -17.69335938 61.77929688 C-17.7990226 64.18607027 -17.90112327 66.59293983 -18 69 C-18.99 69.495 -18.99 69.495 -20 70 C-20.69114449 45.0164066 -16.58825998 19.81174282 0 0 Z " fill="#0013E3" transform="translate(407,346)"/>
<path d="M0 0 C0.33 0 0.66 0 1 0 C6.30772603 23.51480235 0.20845829 47.4600427 -12.15625 67.59765625 C-15.1267025 72.15863089 -18.04260438 76.24397628 -22 80 C-21.38463277 76.5414804 -20.0621167 74.51829329 -17.9375 71.75 C-3.68778129 51.84144238 1.04357362 29.90008706 -0.80859375 5.7890625 C-1 2 -1 2 0 0 Z " fill="#000ACF" transform="translate(629,603)"/>
<path d="M0 0 C0.99 0.33 1.98 0.66 3 1 C2.67 37.63 2.34 74.26 2 112 C1.67 112 1.34 112 1 112 C0.505 59.035 0.505 59.035 0 5 C-1.65 5.33 -3.3 5.66 -5 6 C-5.99 6 -6.98 6 -8 6 C-6.7391988 4.96680187 -5.46596742 3.94875621 -4.1875 2.9375 C-3.47980469 2.36902344 -2.77210938 1.80054688 -2.04296875 1.21484375 C-1.36878906 0.81394531 -0.69460938 0.41304687 0 0 Z " fill="#053EEE" transform="translate(693,147)"/>
<path d="M0 0 C3.89181438 3.16775589 7.44893166 6.44893166 11 10 C13.64036781 12.36399286 16.31440838 14.68759232 19 17 C18.67 17.66 18.34 18.32 18 19 C17.33613281 18.58621094 16.67226563 18.17242188 15.98828125 17.74609375 C12.46168747 15.6854566 8.84822175 13.8704764 5.1875 12.0625 C3.82682292 11.38671875 2.46614583 10.7109375 1.10546875 10.03515625 C0.43692871 9.70402832 -0.23161133 9.37290039 -0.92041016 9.03173828 C-4.28441761 7.36276722 -7.64194393 5.68090825 -11 4 C-10.67 3.34 -10.34 2.68 -10 2 C-7.03 2.33 -4.06 2.66 -1 3 C-1 3.99 -1 4.98 -1 6 C1.475 6.99 1.475 6.99 4 8 C3.71125 7.4225 3.4225 6.845 3.125 6.25 C2.08333333 4.16666667 1.04166667 2.08333333 0 0 Z " fill="#0011DA" transform="translate(474,517)"/>
<path d="M0 0 C3.08028948 2.77226053 4.83016411 5.00306072 6 9 C6.04165365 10.66614608 6.04165365 12.33385392 6 14 C6.30791692 15.671549 6.64386903 17.33805547 7 19 C8.80198793 28.55053603 6.82439279 35.31951775 3 44 C1.87054865 40.61164594 2.44266257 39.35888334 3.4453125 36.0625 C6.68157737 24.02906443 3.98886408 11.54111341 0 0 Z " fill="#0324E2" transform="translate(550,527)"/>
<path d="M0 0 C3.7910119 1.44950455 7.3874638 3.15172566 11 5 C11 5.66 11 6.32 11 7 C12.98 7.99 14.96 8.98 17 10 C16.95875 10.78375 16.9175 11.5675 16.875 12.375 C16.71271266 15.16116119 16.71271266 15.16116119 19 17 C18.01 17 17.02 17 16 17 C14.8180918 15.61547897 13.6449527 14.22208204 12.52734375 12.78515625 C10.24069883 10.11253035 7.56980127 7.95084697 4.8671875 5.7109375 C2.95109281 3.95518546 1.49173355 2.1217825 0 0 Z " fill="#021EDF" transform="translate(526,500)"/>
<path d="M0 0 C0.99 0.33 1.98 0.66 3 1 C2.67 13.87 2.34 26.74 2 40 C1.67 40 1.34 40 1 40 C0.505 22.675 0.505 22.675 0 5 C-1.65 5.33 -3.3 5.66 -5 6 C-5.99 6 -6.98 6 -8 6 C-6.7391988 4.96680187 -5.46596742 3.94875621 -4.1875 2.9375 C-3.47980469 2.36902344 -2.77210938 1.80054688 -2.04296875 1.21484375 C-1.36878906 0.81394531 -0.69460938 0.41304687 0 0 Z " fill="#062FC8" transform="translate(693,147)"/>
<path d="M0 0 C0.66 0.33 1.32 0.66 2 1 C-1.65062622 14.00535592 -8.74006133 25.43342952 -17 36 C-17.495 34.515 -17.495 34.515 -18 33 C-16.67289068 31.2188796 -15.33472788 29.44541114 -13.95703125 27.703125 C-7.91781158 19.36152817 -2.66973336 9.96700455 0 0 Z " fill="#0017E3" transform="translate(625,647)"/>
<path d="M0 0 C1.1359738 3.40792139 0.53729955 4.69339844 -0.49316406 8.00634766 C-1.39120411 11.53881153 -1.38160531 15.05924385 -1.375 18.6875 C-1.37556396 19.47334473 -1.37612793 20.25918945 -1.37670898 21.06884766 C-1.24832809 27.93126268 0.41170857 33.65920573 3 40 C3.35954127 41.3265063 3.70351009 42.65799306 4 44 C-0.28871745 41.14085503 -1.47947513 37.84494514 -3 33 C-4.9520521 22.44497541 -4.4389046 9.88920519 0 0 Z " fill="#0228DE" transform="translate(467,469)"/>
<path d="M0 0 C0.66 0.33 1.32 0.66 2 1 C0.71451591 2.33929505 -0.57858155 3.67128643 -1.875 5 C-2.59429687 5.7425 -3.31359375 6.485 -4.0546875 7.25 C-6 9 -6 9 -8 9 C-8.020625 9.70125 -8.04125 10.4025 -8.0625 11.125 C-9.44979209 15.3793624 -12.51624172 17.35307139 -16 20 C-16 16.49250024 -15.5242631 16.11317894 -13.25 13.625 C-11.40833696 11.57679531 -9.67210253 9.56963457 -8 7.375 C-5.57620186 4.49673971 -2.94286558 2.3409158 0 0 Z " fill="#002BF4" transform="translate(424,327)"/>
<path d="M0 0 C3.89181438 3.16775589 7.44893166 6.44893166 11 10 C13.64036781 12.36399286 16.31440838 14.68759232 19 17 C18.67 17.66 18.34 18.32 18 19 C15.28775382 17.38731308 12.62647188 15.75098126 10 14 C10 13.34 10 12.68 10 12 C9.236875 11.566875 8.47375 11.13375 7.6875 10.6875 C4.62171919 8.76247484 3.6322256 7.18672618 2 4 C1.608125 3.236875 1.21625 2.47375 0.8125 1.6875 C0.544375 1.130625 0.27625 0.57375 0 0 Z " fill="#0229DF" transform="translate(474,517)"/>
<path d="M0 0 C0.33 0 0.66 0 1 0 C1.48350422 7.89723556 -0.32335279 15.33532703 -2 23 C-2.33 23 -2.66 23 -3 23 C-3.05449838 21.27119018 -3.09301688 19.54187288 -3.125 17.8125 C-3.14820313 16.84957031 -3.17140625 15.88664063 -3.1953125 14.89453125 C-2.98952646 11.84478215 -2.20893387 9.78421134 -1 7 C-0.6186926 4.67402489 -0.27539746 2.34087842 0 0 Z " fill="#0453F1" transform="translate(691,540)"/>
<path d="M0 0 C1 4 1 4 1 6 C-0.95927063 7.7143618 -2.95880212 9.38405168 -5 11 C-5.66 10.67 -6.32 10.34 -7 10 C-3.535 5.05 -3.535 5.05 0 0 Z " fill="#0021EC" transform="translate(407,346)"/>
<path d="M0 0 C0.33 0.99 0.66 1.98 1 3 C1.66 3.33 2.32 3.66 3 4 C1.75 5.5625 1.75 5.5625 0 7 C-2.1875 6.6875 -2.1875 6.6875 -4 6 C-2.68 4.02 -1.36 2.04 0 0 Z " fill="#0345F4" transform="translate(610,679)"/>
<path d="M0 0 C3.7910119 1.44950455 7.3874638 3.15172566 11 5 C10.67 5.66 10.34 6.32 10 7 C5.04303419 5.76075855 2.88341534 4.21422242 0 0 Z " fill="#011AD3" transform="translate(526,500)"/>
<path d="M0 0 C0.66 0.33 1.32 0.66 2 1 C1.525625 1.5775 1.05125 2.155 0.5625 2.75 C-0.9484867 4.92582084 -1.54036151 6.42602448 -2 9 C-2.66 9 -3.32 9 -4 9 C-4 8.34 -4 7.68 -4 7 C-4.66 6.67 -5.32 6.34 -6 6 C-4.02 4.02 -2.04 2.04 0 0 Z " fill="#025CF1" transform="translate(404,344)"/>
<path d="M0 0 C0.66 0.33 1.32 0.66 2 1 C0.75965588 2.32162881 -0.49268626 3.63200453 -1.75 4.9375 C-2.44609375 5.66839844 -3.1421875 6.39929688 -3.859375 7.15234375 C-6.00599725 9.00517646 -7.23532932 9.60771565 -10 10 C-7.02911382 6.00073014 -3.87051275 3.07881696 0 0 Z " fill="#0439EB" transform="translate(424,327)"/>
<path d="M0 0 C0 2.31 0 4.62 0 7 C-0.33 6.01 -0.66 5.02 -1 4 C-1.763125 4.165 -2.52625 4.33 -3.3125 4.5 C-6 5 -6 5 -9 5 C-7.87926138 4.16094435 -6.75325453 3.32892169 -5.625 2.5 C-4.99851562 2.0359375 -4.37203125 1.571875 -3.7265625 1.09375 C-2 0 -2 0 0 0 Z " fill="#012DE8" transform="translate(694,148)"/>
<path d="M0 0 C0.66 0 1.32 0 2 0 C1.54177532 3.46941546 1.10868317 6.67395049 0 10 C-0.66 10 -1.32 10 -2 10 C-1.34 6.7 -0.68 3.4 0 0 Z " fill="#046EF6" transform="translate(339,443)"/>
<path d="M0 0 C3 1 3 1 3 1 Z " fill="#0A5AF0" transform="translate(380,636)"/>
<path d="M0 0 C0.33 0.66 0.66 1.32 1 2 C0.34 1.67 -0.32 1.34 -1 1 C-0.67 0.67 -0.34 0.34 0 0 Z " fill="#0659F5" transform="translate(413,622)"/>
<path d="" fill="#0765ED" transform="translate(0,0)"/>
<path d="" fill="#0766EE" transform="translate(0,0)"/>
<path d="M0 0 C0.99 0.495 0.99 0.495 2 1 C1.01 1.495 1.01 1.495 0 2 C0 1.34 0 0.68 0 0 Z " fill="#07259C" transform="translate(693,144)"/>
<path d="M0 0 C2 1 2 1 2 1 Z " fill="#0835E5" transform="translate(480,775)"/>
<path d="M0 0 C2 1 2 1 2 1 Z " fill="#0942F0" transform="translate(401,680)"/>
<path d="" fill="#085FE7" transform="translate(0,0)"/>
<path d="" fill="#0761E9" transform="translate(0,0)"/>
<path d="" fill="#0863EA" transform="translate(0,0)"/>
<path d="" fill="#0566EE" transform="translate(0,0)"/>
<path d="" fill="#0A56EB" transform="translate(0,0)"/>
<path d="" fill="#0759ED" transform="translate(0,0)"/>
<path d="" fill="#0769EE" transform="translate(0,0)"/>
<path d="" fill="#0967ED" transform="translate(0,0)"/>
<path d="" fill="#055BEE" transform="translate(0,0)"/>
<path d="" fill="#030203" transform="translate(0,0)"/>
<path d="" fill="#020302" transform="translate(0,0)"/>
<path d="" fill="#060606" transform="translate(0,0)"/>
<path d="" fill="#010302" transform="translate(0,0)"/>
<path d="" fill="#000000" transform="translate(0,0)"/>
<path d="" fill="#0D0F0E" transform="translate(0,0)"/>
<path d="" fill="#000519" transform="translate(0,0)"/>
<path d="" fill="#0C0C0D" transform="translate(0,0)"/>
<path d="" fill="#000000" transform="translate(0,0)"/>
<path d="" fill="#020402" transform="translate(0,0)"/>
<path d="" fill="#020000" transform="translate(0,0)"/>
<path d="" fill="#000200" transform="translate(0,0)"/>
<path d="" fill="#000000" transform="translate(0,0)"/>
<path d="" fill="#060507" transform="translate(0,0)"/>
<path d="" fill="#040504" transform="translate(0,0)"/>
<path d="" fill="#090A0A" transform="translate(0,0)"/>
<path d="" fill="#070807" transform="translate(0,0)"/>
<path d="" fill="#0B2CC4" transform="translate(0,0)"/>
<path d="" fill="#0833D3" transform="translate(0,0)"/>
<path d="" fill="#0A37E0" transform="translate(0,0)"/>
<path d="" fill="#0A35DC" transform="translate(0,0)"/>
<path d="" fill="#0A36E1" transform="translate(0,0)"/>
<path d="" fill="#000000" transform="translate(0,0)"/>
<path d="" fill="#050506" transform="translate(0,0)"/>
<path d="" fill="#0B37E4" transform="translate(0,0)"/>
<path d="" fill="#0935E6" transform="translate(0,0)"/>
<path d="" fill="#0936E5" transform="translate(0,0)"/>
<path d="" fill="#0637E6" transform="translate(0,0)"/>
<path d="" fill="#0738E6" transform="translate(0,0)"/>
<path d="" fill="#0838E9" transform="translate(0,0)"/>
<path d="" fill="#0737E6" transform="translate(0,0)"/>
<path d="" fill="#010001" transform="translate(0,0)"/>
<path d="" fill="#0936E4" transform="translate(0,0)"/>
<path d="" fill="#0736E3" transform="translate(0,0)"/>
<path d="" fill="#0834E0" transform="translate(0,0)"/>
<path d="" fill="#0835E2" transform="translate(0,0)"/>
<path d="" fill="#0A3DE8" transform="translate(0,0)"/>
<path d="" fill="#0B34DD" transform="translate(0,0)"/>
<path d="" fill="#0940EB" transform="translate(0,0)"/>
<path d="" fill="#0841EE" transform="translate(0,0)"/>
<path d="" fill="#0A40ED" transform="translate(0,0)"/>
<path d="" fill="#0936D6" transform="translate(0,0)"/>
<path d="" fill="#0E3ADA" transform="translate(0,0)"/>
<path d="" fill="#060505" transform="translate(0,0)"/>
<path d="" fill="#0A43F2" transform="translate(0,0)"/>
<path d="" fill="#0A40DB" transform="translate(0,0)"/>
<path d="" fill="#0A46F3" transform="translate(0,0)"/>
<path d="" fill="#0A45E1" transform="translate(0,0)"/>
<path d="" fill="#0A44F5" transform="translate(0,0)"/>
<path d="" fill="#085AEC" transform="translate(0,0)"/>
<path d="" fill="#000000" transform="translate(0,0)"/>
<path d="" fill="#0C41F3" transform="translate(0,0)"/>
<path d="" fill="#0B0C0C" transform="translate(0,0)"/>
<path d="" fill="#0A3FED" transform="translate(0,0)"/>
<path d="" fill="#0758F6" transform="translate(0,0)"/>
<path d="" fill="#075BF6" transform="translate(0,0)"/>
<path d="" fill="#00040D" transform="translate(0,0)"/>
<path d="" fill="#0A3AEC" transform="translate(0,0)"/>
<path d="" fill="#085BE1" transform="translate(0,0)"/>
<path d="" fill="#085AF2" transform="translate(0,0)"/>
<path d="" fill="#0657F3" transform="translate(0,0)"/>
<path d="" fill="#0757F6" transform="translate(0,0)"/>
<path d="" fill="#0A4EE9" transform="translate(0,0)"/>
<path d="" fill="#070806" transform="translate(0,0)"/>
<path d="" fill="#0864E9" transform="translate(0,0)"/>
<path d="" fill="#0862E9" transform="translate(0,0)"/>
<path d="" fill="#0751EA" transform="translate(0,0)"/>
<path d="" fill="#094FE9" transform="translate(0,0)"/>
<path d="" fill="#0950F0" transform="translate(0,0)"/>
<path d="" fill="#0C50F0" transform="translate(0,0)"/>
<path d="" fill="#010203" transform="translate(0,0)"/>
<path d="" fill="#0765EF" transform="translate(0,0)"/>
<path d="" fill="#0764ED" transform="translate(0,0)"/>
<path d="" fill="#0A4FEC" transform="translate(0,0)"/>
<path d="" fill="#0955E7" transform="translate(0,0)"/>
<path d="" fill="#0666EF" transform="translate(0,0)"/>
<path d="" fill="#0862EC" transform="translate(0,0)"/>
<path d="" fill="#0855EA" transform="translate(0,0)"/>
<path d="" fill="#0866EE" transform="translate(0,0)"/>
<path d="" fill="#054DE1" transform="translate(0,0)"/>
<path d="" fill="#0757EB" transform="translate(0,0)"/>
<path d="" fill="#0956EA" transform="translate(0,0)"/>
<path d="" fill="#092EDF" transform="translate(0,0)"/>
<path d="" fill="#092BE0" transform="translate(0,0)"/>
<path d="" fill="#0936DE" transform="translate(0,0)"/>
<path d="" fill="#0758EC" transform="translate(0,0)"/>
<path d="" fill="#085BED" transform="translate(0,0)"/>
<path d="" fill="#0D4CE3" transform="translate(0,0)"/>
<path d="" fill="#065CEE" transform="translate(0,0)"/>
<path d="" fill="#0955E8" transform="translate(0,0)"/>
<path d="" fill="#055FEF" transform="translate(0,0)"/>
<path d="" fill="#0A67EE" transform="translate(0,0)"/>
<path d="" fill="#065FEE" transform="translate(0,0)"/>
<path d="" fill="#065DEC" transform="translate(0,0)"/>
<path d="" fill="#055EEE" transform="translate(0,0)"/>
<path d="" fill="#0833E5" transform="translate(0,0)"/>
<path d="" fill="#000108" transform="translate(0,0)"/>
<path d="" fill="#0B69EA" transform="translate(0,0)"/>
<path d="" fill="#020202" transform="translate(0,0)"/>
<path d="" fill="#065FEC" transform="translate(0,0)"/>
<path d="" fill="#0966EC" transform="translate(0,0)"/>
<path d="" fill="#0862F7" transform="translate(0,0)"/>
<path d="" fill="#0D61E4" transform="translate(0,0)"/>
<path d="" fill="#0765F7" transform="translate(0,0)"/>
<path d="" fill="#075EEB" transform="translate(0,0)"/>
<path d="" fill="#0663F5" transform="translate(0,0)"/>
<path d="" fill="#0A0B0C" transform="translate(0,0)"/>
<path d="" fill="#0764FA" transform="translate(0,0)"/>
<path d="" fill="#0862E7" transform="translate(0,0)"/>
<path d="" fill="#0763F9" transform="translate(0,0)"/>
<path d="" fill="#000104" transform="translate(0,0)"/>
<path d="" fill="#000000" transform="translate(0,0)"/>
<path d="" fill="#0A62F5" transform="translate(0,0)"/>
<path d="" fill="#0B60EA" transform="translate(0,0)"/>
<path d="" fill="#085DF0" transform="translate(0,0)"/>
<path d="" fill="#0864F4" transform="translate(0,0)"/>
<path d="" fill="#054BF4" transform="translate(0,0)"/>
<path d="" fill="#085AE6" transform="translate(0,0)"/>
<path d="" fill="#074BF4" transform="translate(0,0)"/>
<path d="" fill="#0D4FE1" transform="translate(0,0)"/>
<path d="" fill="#0C50E3" transform="translate(0,0)"/>
<path d="" fill="#0848F2" transform="translate(0,0)"/>
<path d="" fill="#080A09" transform="translate(0,0)"/>
<path d="" fill="#000001" transform="translate(0,0)"/>
<path d="" fill="#000000" transform="translate(0,0)"/>
<path d="" fill="#040502" transform="translate(0,0)"/>
<path d="" fill="#0D3BD6" transform="translate(0,0)"/>
<path d="" fill="#000D24" transform="translate(0,0)"/>
<path d="" fill="#0C37DA" transform="translate(0,0)"/>
<path d="" fill="#0B37D5" transform="translate(0,0)"/>
<path d="" fill="#070806" transform="translate(0,0)"/>
<path d="" fill="#010102" transform="translate(0,0)"/>
<path d="" fill="#0A3CE4" transform="translate(0,0)"/>
<path d="" fill="#093AE5" transform="translate(0,0)"/>
<path d="" fill="#000004" transform="translate(0,0)"/>
<path d="" fill="#093DE8" transform="translate(0,0)"/>
<path d="" fill="#0B3EE7" transform="translate(0,0)"/>
<path d="" fill="#020301" transform="translate(0,0)"/>
<path d="" fill="#000003" transform="translate(0,0)"/>
<path d="" fill="#030404" transform="translate(0,0)"/>
<path d="" fill="#0939E9" transform="translate(0,0)"/>
<path d="" fill="#000100" transform="translate(0,0)"/>
<path d="" fill="#0A2FC9" transform="translate(0,0)"/>
<path d="" fill="#0B2CB9" transform="translate(0,0)"/>
<path d="" fill="#072395" transform="translate(0,0)"/>
<path d="" fill="#000000" transform="translate(0,0)"/>
<path d="" fill="#070807" transform="translate(0,0)"/>
<path d="" fill="#000202" transform="translate(0,0)"/>
<path d="" fill="#09090A" transform="translate(0,0)"/>
<path d="" fill="#020403" transform="translate(0,0)"/>
<path d="" fill="#111214" transform="translate(0,0)"/>
<path d="" fill="#050506" transform="translate(0,0)"/>
<path d="" fill="#040504" transform="translate(0,0)"/>
<path d="" fill="#060605" transform="translate(0,0)"/>
</svg>
